# xmcd
#
# Track frame offsets: 
#        150
#        12630
#        22635
#        36597
#        49567
#        74202
#        84087
#        95729
#        110646
#        121059
#        136511
#        152014
#        162504
#        172124
#        187089
#        202556
#        214384
#        233801
#        260619
#
# Disc length: 3675 seconds
#
# Revision: 0
# Processed by: cddbd v1.5.2PL0 Copyright (c) Steve Scherf et al.
# Submitted via: ExactAudioCopyFreeDBPlugin 1.0
#
DISCID=070e5913
DTITLE=Willie Dixon - Twenty-Five Ways
DYEAR=2012
DGENRE=Blues
TTITLE0=Wang Dang Doodle
TTITLE1=So Long
TTITLE2=Walking The Blues
TTITLE3=Crazy For My Baby
TTITLE4=This Pain In My Heart
TTITLE5=Twenty-Nine Ways
TTITLE6=All The Time
TTITLE7=Nervous
TTITLE8=Good Understanding
TTITLE9=That's My Baby
TTITLE10=Slim's Thing
TTITLE11=That's All I Want Baby
TTITLE12=Don't You Tell Nobody
TTITLE13=Youth To You
TTITLE14=Sittin' And Cryin' The Blues
TTITLE15=Built For Comfort
TTITLE16=I Got A Razor
TTITLE17=Go Easy
TTITLE18=Move Me
EXTD=
EXTT0=
EXTT1=
EXTT2=
EXTT3=
EXTT4=
EXTT5=
EXTT6=
EXTT7=
EXTT8=
EXTT9=
EXTT10=
EXTT11=
EXTT12=
EXTT13=
EXTT14=
EXTT15=
EXTT16=
EXTT17=
EXTT18=
PLAYORDER=
